<svg t="1747967097615" class="icon" viewBox="0 0 1024 1024" version="1.1" xmlns="http://www.w3.org/2000/svg" p-id="1305" width="200" height="200"><path d="M656 944h-48a16 16 0 0 1-16-16v-176a16 16 0 0 1 16-16h112a16 16 0 0 1 16 16v112a80.094 80.094 0 0 1-80 80z m-32-32h32a48.054 48.054 0 0 0 48-48v-96h-80z" fill="#E3CEA8" p-id="1306"></path><path d="M360.8 490.24A80.014 80.014 0 0 0 400 640a74.6 74.6 0 0 0 18.08-2.08 48 48 0 1 0 59.84-59.84A74.6 74.6 0 0 0 480 560a77.262 77.262 0 0 0-2.24-18.4 240.508 240.508 0 1 0-116.96-51.36z" fill="#F2E6C7" p-id="1307"></path><path d="M510.24 636.64a47.944 47.944 0 0 1-92.16 1.28A74.6 74.6 0 0 1 400 640a80.014 80.014 0 0 1-39.2-149.76 239.87 239.87 0 0 1 77.28-414.56 239.764 239.764 0 0 0-13.28 382.56A80.014 80.014 0 0 0 464 608a74.6 74.6 0 0 0 18.08-2.08 47.636 47.636 0 0 0 28.16 30.72z" fill="#E3CEA8" p-id="1308"></path><path d="M512 352a16 16 0 0 1-16-16V176a16 16 0 0 1 32 0v160a16 16 0 0 1-16 16z" fill="#AA7146" p-id="1309"></path><path d="M608 320h-128a16 16 0 0 1 0-32h128a16 16 0 0 1 0 32z" fill="#AA7146" p-id="1310"></path><path d="M320 736h352v80a176 176 0 0 1-176 176 176 176 0 0 1-176-176v-80z" fill="#F2E6C7" p-id="1311"></path><path d="M630.72 929.28A176.014 176.014 0 0 1 320 816v-80h64v32a176.214 176.214 0 0 0 246.72 161.28z" fill="#E3CEA8" p-id="1312"></path><path d="M672 992H320a16 16 0 0 1 0-32h352a16 16 0 0 1 0 32z" fill="#E3CEA8" p-id="1313"></path><path d="M688 48.47A56.236 56.236 0 0 1 767.53 128zM336 48.47A56.236 56.236 0 0 0 256.47 128z" fill="#AA7146" p-id="1314"></path></svg>